<?xml version="1.0" encoding="UTF-8"?>
<svg width="512px" height="512px" viewBox="0 0 512 512" version="1.1" xmlns="http://www.w3.org/2000/svg" xmlns:xlink="http://www.w3.org/1999/xlink">
    <title>Untitled</title>
    <g id="Page-1" stroke="none" stroke-width="1" fill="none" fill-rule="evenodd" stroke-linecap="round">
        <path d="M28.7047532,338.384826 C55.8257193,340.73157 91.2413448,346.499769 134.95163,355.689423 C200.517057,369.473904 215.082245,380.184235 272.575562,387.636642 C330.068878,395.08905 398.023586,398.103638 434.998108,406.758179 C459.647789,412.527873 475.665606,418.15772 483.051561,423.64772" id="Line" stroke="#000000" stroke-width="5"></path>
        <path d="M167.332172,346.771592 C212.631813,336.604314 246.637295,333.328313 269.348618,336.943588 C292.05994,340.558863 323.554757,350.730413 363.833069,367.458237" id="Line" stroke="#000000" stroke-width="5"></path>
        <path d="M224.165448,302.220293 C227.885603,263.648926 287.0657,234.857141 330.042435,140.102722 C343.000583,111.532804 346.164406,79.6787968 352.440796,80.7868767 C358.717186,81.8949566 387.129024,113.082138 390.82019,154.147171 C394.883757,199.35523 388.163469,237.806173 370.659328,269.5" id="Line" stroke="#000000" stroke-width="5"></path>
        <path d="M196.564481,311.470848 C188.2789,289.460022 187.15358,245.398173 124.512505,205.85704 C112.908479,198.532193 96.6913528,193.959114 97.6448364,188.672928 C98.59832,183.386742 167.1772,156.648422 227.885603,199.673323" id="Line" stroke="#000000" stroke-width="5"></path>
        <path d="M63.1471664,334.940585 C73.3593061,331.910177 81.3958692,330.865945 87.2568556,331.807889 C93.117842,332.749834 101.154405,336.377247 111.366545,342.690128" id="Line" stroke="#D40000" stroke-width="5"></path>
    </g>
</svg>
